# Blender v2.81 (sub 16) OBJ File: 'wiiTank.blend'
# www.blender.org
mtllib wiiTank_body.mtl
o tank_body.005_Cube.011
v 1.202353 -0.607257 12.874956
v 1.202353 -0.015950 12.131339
v 1.202353 -0.015950 8.840686
v 1.202353 -0.607257 8.097069
v 1.739494 -0.607257 8.097069
v 1.739494 -0.015950 8.840686
v 1.739494 -0.015950 12.131339
v 1.739494 -0.607257 12.874956
v 1.202353 -2.015950 12.269494
v 1.202353 -1.689014 12.874956
v 1.202353 -1.689014 8.097069
v 1.202353 -2.015950 8.702531
v 1.739494 -2.015950 8.702531
v 1.739494 -1.689014 8.097069
v 1.739494 -1.689014 12.874956
v 1.739494 -2.015950 12.269494
v 1.202353 0.021820 8.782395
v 1.202353 -0.590437 8.012434
v 1.202353 -0.590437 12.959591
v 1.202353 0.021820 12.189630
v 1.202353 -2.049036 12.332679
v 1.202353 -1.710518 12.959591
v 1.202353 -1.710518 8.012434
v 1.202353 -2.049036 8.639346
v 1.739494 -1.028813 12.222595
v 1.739494 -0.896026 12.035086
v 1.739494 -0.896026 8.936939
v 1.739494 -1.028813 8.749430
v 1.739494 -1.653991 12.100330
v 1.739494 -1.533778 12.222595
v 1.739494 -1.533778 8.749430
v 1.739494 -1.653991 8.871695
v 1.702155 -1.028813 12.222595
v 1.702155 -0.896026 12.035086
v 1.702155 -0.896026 8.936939
v 1.702155 -1.028813 8.749430
v 1.702155 -1.653991 12.100330
v 1.702155 -1.533778 12.222595
v 1.702155 -1.533778 8.749430
v 1.702155 -1.653991 8.871695
v -1.202353 -0.607257 12.874956
v -1.202353 -0.015950 12.131339
v -1.202353 -0.015950 8.840686
v -1.202353 -0.607257 8.097069
v -1.739494 -0.607257 8.097069
v -1.739494 -0.015950 8.840686
v -1.739494 -0.015950 12.131339
v -1.739494 -0.607257 12.874956
v -1.202353 -2.015950 12.269494
v -1.202353 -1.689014 12.874956
v -1.202353 -1.689014 8.097069
v -1.202353 -2.015950 8.702531
v -1.739494 -2.015950 8.702531
v -1.739494 -1.689014 8.097069
v -1.739494 -1.689014 12.874956
v -1.739494 -2.015950 12.269494
v 0.000000 -0.590437 8.012434
v 0.000000 0.021820 8.782395
v -1.202353 0.021820 8.782395
v -1.202353 -0.590437 8.012434
v -1.202353 -0.590437 12.959591
v -1.202353 0.021820 12.189630
v 0.000000 0.021820 12.189630
v 0.000000 -0.590437 12.959591
v 0.000000 -1.710518 12.959591
v 0.000000 -2.049036 12.332679
v -1.202353 -2.049036 12.332679
v -1.202353 -1.710518 12.959591
v -1.202353 -1.710518 8.012434
v -1.202353 -2.049036 8.639346
v 0.000000 -2.049036 8.639346
v 0.000000 -1.710518 8.012434
v -1.739494 -1.028813 12.222595
v -1.739494 -0.896026 12.035086
v -1.739494 -0.896026 8.936939
v -1.739494 -1.028813 8.749430
v -1.739494 -1.653991 12.100330
v -1.739494 -1.533778 12.222595
v -1.739494 -1.533778 8.749430
v -1.739494 -1.653991 8.871695
v -1.702155 -1.028813 12.222595
v -1.702155 -0.896026 12.035086
v -1.702155 -0.896026 8.936939
v -1.702155 -1.028813 8.749430
v -1.702155 -1.653991 12.100330
v -1.702155 -1.533778 12.222595
v -1.702155 -1.533778 8.749430
v -1.702155 -1.653991 8.871695
vt 0.625000 0.527580
vt 0.625000 0.722420
vt 0.625000 0.722420
vt 0.625000 0.527580
vt 0.375000 0.523810
vt 0.375000 0.726190
vt 0.375000 0.726190
vt 0.375000 0.523810
vt 0.597420 0.750000
vt 0.402042 0.750000
vt 0.402042 0.750000
vt 0.597420 0.750000
vt 0.597420 0.500000
vt 0.402042 0.500000
vt 0.402042 0.500000
vt 0.597420 0.500000
vt 0.597420 0.500000
vt 0.402042 0.500000
vt 0.625000 0.722420
vt 0.625000 0.527580
vt 0.625000 0.527580
vt 0.625000 0.722420
vt 0.597420 0.750000
vt 0.402042 0.750000
vt 0.375000 0.726190
vt 0.375000 0.523810
vt 0.402042 0.375000
vt 0.597420 0.375000
vt 0.597420 0.875000
vt 0.402042 0.875000
vt 0.250000 0.523810
vt 0.250000 0.726190
vt 0.375000 0.750000
vt 0.250000 0.750000
vt 0.250000 0.500000
vt 0.375000 0.500000
vt 0.597420 0.750000
vt 0.402042 0.750000
vt 0.402042 0.750000
vt 0.597420 0.750000
vt 0.597420 0.500000
vt 0.402042 0.500000
vt 0.375000 0.726190
vt 0.375000 0.523810
vt 0.402042 0.500000
vt 0.375000 0.523810
vt 0.625000 0.722420
vt 0.625000 0.527580
vt 0.597420 0.500000
vt 0.375000 0.726190
vt 0.625000 0.527580
vt 0.625000 0.527580
vt 0.625000 0.722420
vt 0.625000 0.722420
vt 0.375000 0.523810
vt 0.375000 0.523810
vt 0.375000 0.726190
vt 0.375000 0.726190
vt 0.597420 0.750000
vt 0.597420 0.750000
vt 0.402042 0.750000
vt 0.402042 0.750000
vt 0.597420 0.500000
vt 0.597420 0.500000
vt 0.402042 0.500000
vt 0.402042 0.500000
vt 0.402042 0.500000
vt 0.597420 0.500000
vt 0.625000 0.722420
vt 0.625000 0.722420
vt 0.625000 0.527580
vt 0.625000 0.527580
vt 0.402042 0.750000
vt 0.597420 0.750000
vt 0.375000 0.726190
vt 0.375000 0.523810
vt 0.375000 0.750000
vt 0.375000 0.500000
vt 0.597420 0.750000
vt 0.597420 0.750000
vt 0.402042 0.750000
vt 0.402042 0.750000
vt 0.402042 0.500000
vt 0.597420 0.500000
vt 0.375000 0.726190
vt 0.375000 0.523810
vt 0.375000 0.523810
vt 0.402042 0.500000
vt 0.625000 0.527580
vt 0.625000 0.722420
vt 0.597420 0.500000
vt 0.375000 0.726190
vt 0.750000 0.527580
vt 0.750000 0.722420
vt 0.625000 0.500000
vt 0.750000 0.500000
vt 0.750000 0.750000
vt 0.625000 0.750000
vt 0.625000 0.500000
vt 0.625000 0.750000
vn 1.0000 0.0000 0.0000
vn 0.0000 0.0000 1.0000
vn 0.0000 0.0000 -1.0000
vn 0.0000 0.7827 0.6224
vn 0.0000 0.7827 -0.6224
vn 0.0000 1.0000 0.0000
vn 0.0000 -0.8799 0.4751
vn 0.0000 -0.8799 -0.4751
vn 0.0000 -1.0000 0.0000
vn 0.0000 0.7131 0.7011
vn 0.0000 -0.8161 -0.5779
vn 0.0000 0.7131 -0.7011
vn 0.0000 -0.8161 0.5779
vn -1.0000 -0.0000 0.0000
usemtl BaigeColouration
s off
f 6/1/1 7/2/1 26/3/1 27/4/1
f 12/5/1 9/6/1 21/7/1 24/8/1
f 1/9/2 10/10/2 15/11/2 8/12/2
f 4/13/1 11/14/1 23/15/1 18/16/1
f 11/14/3 4/13/3 5/17/3 14/18/3
f 2/19/1 3/20/1 17/21/1 20/22/1
f 11/14/1 12/5/1 24/8/1 23/15/1
f 10/10/1 1/9/1 19/23/1 22/24/1
f 9/6/1 10/10/1 22/24/1 21/7/1
f 7/2/4 2/19/4 1/9/4 8/12/4
f 5/17/5 4/13/5 3/20/5 6/1/5
f 3/20/6 2/19/6 7/2/6 6/1/6
f 1/9/1 2/19/1 20/22/1 19/23/1
f 3/20/1 4/13/1 18/16/1 17/21/1
f 9/6/7 16/25/7 15/11/7 10/10/7
f 11/14/8 14/18/8 13/26/8 12/5/8
f 9/6/9 12/5/9 13/26/9 16/25/9
f 72/27/3 57/28/3 18/16/3 23/15/3
f 22/24/2 19/23/2 64/29/2 65/30/2
f 71/31/9 24/8/9 21/7/9 66/32/9
f 66/32/7 21/7/7 22/33/7 65/34/7
f 24/8/8 71/31/8 72/35/8 23/36/8
f 25/37/3 30/38/3 38/39/3 33/40/3
f 14/18/1 5/17/1 28/41/1 31/42/1
f 15/11/1 16/25/1 29/43/1 30/38/1
f 8/12/1 15/11/1 30/38/1 25/37/1
f 5/17/1 6/1/1 27/4/1 28/41/1
f 13/26/1 14/18/1 31/42/1 32/44/1
f 16/25/1 13/26/1 32/44/1 29/43/1
f 7/2/1 8/12/1 25/37/1 26/3/1
f 32/44/10 31/42/10 39/45/10 40/46/10
f 27/4/9 26/3/9 34/47/9 35/48/9
f 26/3/11 25/37/11 33/40/11 34/47/11
f 31/42/2 28/41/2 36/49/2 39/45/2
f 29/43/6 32/44/6 40/46/6 37/50/6
f 30/38/12 29/43/12 37/50/12 38/39/12
f 28/41/13 27/4/13 35/48/13 36/49/13
f 46/51/14 75/52/14 74/53/14 47/54/14
f 52/55/14 70/56/14 67/57/14 49/58/14
f 41/59/2 48/60/2 55/61/2 50/62/2
f 44/63/14 60/64/14 69/65/14 51/66/14
f 51/66/3 54/67/3 45/68/3 44/63/3
f 42/69/14 62/70/14 59/71/14 43/72/14
f 51/66/14 69/65/14 70/56/14 52/55/14
f 50/62/14 68/73/14 61/74/14 41/59/14
f 49/58/14 67/57/14 68/73/14 50/62/14
f 47/54/4 48/60/4 41/59/4 42/69/4
f 45/68/5 46/51/5 43/72/5 44/63/5
f 43/72/6 46/51/6 47/54/6 42/69/6
f 41/59/14 61/74/14 62/70/14 42/69/14
f 43/72/14 59/71/14 60/64/14 44/63/14
f 49/58/7 50/62/7 55/61/7 56/75/7
f 51/66/8 52/55/8 53/76/8 54/67/8
f 49/58/9 56/75/9 53/76/9 52/55/9
f 72/27/3 69/65/3 60/64/3 57/28/3
f 68/73/2 65/30/2 64/29/2 61/74/2
f 71/31/9 66/32/9 67/57/9 70/56/9
f 66/32/7 65/34/7 68/77/7 67/57/7
f 70/56/8 69/78/8 72/35/8 71/31/8
f 73/79/3 81/80/3 86/81/3 78/82/3
f 54/67/14 79/83/14 76/84/14 45/68/14
f 55/61/14 78/82/14 77/85/14 56/75/14
f 48/60/14 73/79/14 78/82/14 55/61/14
f 45/68/14 76/84/14 75/52/14 46/51/14
f 53/76/14 80/86/14 79/83/14 54/67/14
f 56/75/14 77/85/14 80/86/14 53/76/14
f 47/54/14 74/53/14 73/79/14 48/60/14
f 80/86/10 88/87/10 87/88/10 79/83/10
f 75/52/9 83/89/9 82/90/9 74/53/9
f 74/53/11 82/90/11 81/80/11 73/79/11
f 79/83/2 87/88/2 84/91/2 76/84/2
f 77/85/6 85/92/6 88/87/6 80/86/6
f 78/82/12 86/81/12 85/92/12 77/85/12
f 76/84/13 84/91/13 83/89/13 75/52/13
usemtl BlackColouration
f 17/21/6 58/93/6 63/94/6 20/22/6
f 58/93/5 17/21/5 18/95/5 57/96/5
f 20/22/4 63/94/4 64/97/4 19/98/4
f 40/46/1 39/45/1 36/49/1 35/48/1 34/47/1 33/40/1 38/39/1 37/50/1
f 59/71/6 62/70/6 63/94/6 58/93/6
f 58/93/5 57/96/5 60/99/5 59/71/5
f 62/70/4 61/100/4 64/97/4 63/94/4
f 88/87/14 85/92/14 86/81/14 81/80/14 82/90/14 83/89/14 84/91/14 87/88/14
